<svg width="56" height="439" viewBox="0 0 56 439" fill="none" xmlns="http://www.w3.org/2000/svg">
<path d="M28 63L28 187" stroke="#BECE00" stroke-width="2"/>
<path d="M28 255L28 379" stroke="#BECE00" stroke-width="2"/>
<circle cx="28" cy="411" r="28" fill="#BECE00"/>
<circle cx="28" cy="411" r="27.5" stroke="#141414" stroke-opacity="0.18"/>
<path d="M14.5064 411.144C14.5064 408.392 14.9544 406.248 15.8504 404.712C16.7464 403.16 18.3144 402.384 20.5544 402.384C22.7784 402.384 24.3384 403.16 25.2344 404.712C26.1304 406.248 26.5784 408.392 26.5784 411.144C26.5784 413.944 26.1304 416.12 25.2344 417.672C24.3384 419.224 22.7784 420 20.5544 420C18.3144 420 16.7464 419.224 15.8504 417.672C14.9544 416.12 14.5064 413.944 14.5064 411.144ZM24.4184 411.144C24.4184 409.752 24.3224 408.576 24.1304 407.616C23.9544 406.64 23.5784 405.856 23.0024 405.264C22.4424 404.672 21.6264 404.376 20.5544 404.376C19.4664 404.376 18.6344 404.672 18.0584 405.264C17.4984 405.856 17.1224 406.64 16.9304 407.616C16.7544 408.576 16.6664 409.752 16.6664 411.144C16.6664 412.584 16.7544 413.792 16.9304 414.768C17.1224 415.744 17.4984 416.528 18.0584 417.12C18.6344 417.712 19.4664 418.008 20.5544 418.008C21.6264 418.008 22.4424 417.712 23.0024 417.12C23.5784 416.528 23.9544 415.744 24.1304 414.768C24.3224 413.792 24.4184 412.584 24.4184 411.144ZM29.2888 407.016C29.4008 405.544 29.9688 404.392 30.9928 403.56C32.0168 402.728 33.3448 402.312 34.9768 402.312C36.0648 402.312 37.0008 402.512 37.7848 402.912C38.5848 403.296 39.1848 403.824 39.5848 404.496C40.0008 405.168 40.2088 405.928 40.2088 406.776C40.2088 407.768 39.9208 408.624 39.3448 409.344C38.7848 410.064 38.0488 410.528 37.1368 410.736V410.856C38.1768 411.112 39.0008 411.616 39.6088 412.368C40.2168 413.12 40.5208 414.104 40.5208 415.32C40.5208 416.232 40.3128 417.056 39.8968 417.792C39.4808 418.512 38.8568 419.08 38.0248 419.496C37.1928 419.912 36.1928 420.12 35.0248 420.12C33.3288 420.12 31.9368 419.68 30.8488 418.8C29.7608 417.904 29.1528 416.64 29.0248 415.008H31.1368C31.2488 415.968 31.6408 416.752 32.3128 417.36C32.9848 417.968 33.8808 418.272 35.0008 418.272C36.1208 418.272 36.9688 417.984 37.5448 417.408C38.1368 416.816 38.4328 416.056 38.4328 415.128C38.4328 413.928 38.0328 413.064 37.2328 412.536C36.4328 412.008 35.2248 411.744 33.6088 411.744H33.0568V409.92H33.6328C35.1048 409.904 36.2168 409.664 36.9688 409.2C37.7208 408.72 38.0968 407.984 38.0968 406.992C38.0968 406.144 37.8168 405.464 37.2568 404.952C36.7128 404.44 35.9288 404.184 34.9048 404.184C33.9128 404.184 33.1128 404.44 32.5048 404.952C31.8968 405.464 31.5368 406.152 31.4248 407.016H29.2888Z" fill="white"/>
<circle cx="28" cy="220" r="28" fill="#BECE00"/>
<circle cx="28" cy="220" r="27.5" stroke="#141414" stroke-opacity="0.18"/>
<path d="M14.6705 220.144C14.6705 217.392 15.1185 215.248 16.0145 213.712C16.9105 212.16 18.4785 211.384 20.7185 211.384C22.9425 211.384 24.5025 212.16 25.3985 213.712C26.2945 215.248 26.7425 217.392 26.7425 220.144C26.7425 222.944 26.2945 225.12 25.3985 226.672C24.5025 228.224 22.9425 229 20.7185 229C18.4785 229 16.9105 228.224 16.0145 226.672C15.1185 225.12 14.6705 222.944 14.6705 220.144ZM24.5825 220.144C24.5825 218.752 24.4865 217.576 24.2945 216.616C24.1185 215.64 23.7425 214.856 23.1665 214.264C22.6065 213.672 21.7905 213.376 20.7185 213.376C19.6305 213.376 18.7985 213.672 18.2225 214.264C17.6625 214.856 17.2865 215.64 17.0945 216.616C16.9185 217.576 16.8305 218.752 16.8305 220.144C16.8305 221.584 16.9185 222.792 17.0945 223.768C17.2865 224.744 17.6625 225.528 18.2225 226.12C18.7985 226.712 19.6305 227.008 20.7185 227.008C21.7905 227.008 22.6065 226.712 23.1665 226.12C23.7425 225.528 24.1185 224.744 24.2945 223.768C24.4865 222.792 24.5825 221.584 24.5825 220.144ZM29.2368 227.248C31.2688 225.616 32.8608 224.28 34.0128 223.24C35.1648 222.184 36.1328 221.088 36.9168 219.952C37.7168 218.8 38.1168 217.672 38.1168 216.568C38.1168 215.528 37.8608 214.712 37.3488 214.12C36.8528 213.512 36.0448 213.208 34.9248 213.208C33.8368 213.208 32.9888 213.552 32.3808 214.24C31.7888 214.912 31.4688 215.816 31.4208 216.952H29.3088C29.3728 215.16 29.9168 213.776 30.9408 212.8C31.9648 211.824 33.2848 211.336 34.9008 211.336C36.5488 211.336 37.8528 211.792 38.8128 212.704C39.7888 213.616 40.2768 214.872 40.2768 216.472C40.2768 217.8 39.8768 219.096 39.0768 220.36C38.2928 221.608 37.3968 222.712 36.3888 223.672C35.3808 224.616 34.0928 225.72 32.5248 226.984H40.7808V228.808H29.2368V227.248Z" fill="white"/>
<circle cx="28" cy="28" r="28" fill="#BECE00"/>
<path d="M17.7291 28.144C17.7291 25.392 18.1771 23.248 19.0731 21.712C19.9691 20.16 21.5371 19.384 23.7771 19.384C26.0011 19.384 27.5611 20.16 28.4571 21.712C29.3531 23.248 29.8011 25.392 29.8011 28.144C29.8011 30.944 29.3531 33.12 28.4571 34.672C27.5611 36.224 26.0011 37 23.7771 37C21.5371 37 19.9691 36.224 19.0731 34.672C18.1771 33.12 17.7291 30.944 17.7291 28.144ZM27.6411 28.144C27.6411 26.752 27.5451 25.576 27.3531 24.616C27.1771 23.64 26.8011 22.856 26.2251 22.264C25.6651 21.672 24.8491 21.376 23.7771 21.376C22.6891 21.376 21.8571 21.672 21.2811 22.264C20.7211 22.856 20.3451 23.64 20.1531 24.616C19.9771 25.576 19.8891 26.752 19.8891 28.144C19.8891 29.584 19.9771 30.792 20.1531 31.768C20.3451 32.744 20.7211 33.528 21.2811 34.12C21.8571 34.712 22.6891 35.008 23.7771 35.008C24.8491 35.008 25.6651 34.712 26.2251 34.12C26.8011 33.528 27.1771 32.744 27.3531 31.768C27.5451 30.792 27.6411 29.584 27.6411 28.144ZM31.9834 21.64V19.648H36.4954V37H34.2874V21.64H31.9834Z" fill="white"/>
</svg>
