<svg width="180" height="180" viewBox="0 0 180 180" fill="none" xmlns="http://www.w3.org/2000/svg">
<path d="M53.4375 39.375H19.6875C18 39.375 16.875 38.25 16.875 36.5625C16.875 34.875 18 33.75 19.6875 33.75H53.4375C55.125 33.75 56.25 34.875 56.25 36.5625C56.25 38.25 55.125 39.375 53.4375 39.375Z" fill="#BECE00"/>
<path d="M90 61.875C72.8438 61.875 59.0625 75.6563 59.0625 92.8125C59.0625 103.219 64.4063 113.063 73.125 118.688V137.812C73.125 147.094 80.7188 154.688 90 154.688C99.2812 154.688 106.875 147.094 106.875 137.812V118.688C121.219 109.406 125.156 90.2812 115.875 75.9375C110.25 67.2188 100.406 61.875 90 61.875ZM90 149.062C83.8125 149.062 78.75 144 78.75 137.812H101.25C101.25 144 96.1875 149.062 90 149.062ZM102.656 114.75C101.812 115.312 101.25 116.156 101.25 117.281V132.188H78.75V117.281C78.75 116.156 78.1875 115.312 77.3438 114.75C65.25 107.719 61.0313 92.25 68.0625 80.1562C75.0938 68.0625 90.5625 63.8438 102.656 70.875C114.75 77.9063 118.969 93.375 111.937 105.469C109.687 109.406 106.594 112.5 102.656 114.75Z" fill="#BECE00"/>
<path d="M59.0625 109.688H25.3125V88.3125L26.1563 89.1563C27.2813 90.2813 28.9687 90.2813 30.0937 89.1563C31.2187 88.0313 31.2187 86.3437 30.0937 85.2187L24.4687 79.5938C23.3437 78.4688 21.6562 78.4688 20.5312 79.5938L14.9063 85.2187C13.7813 86.3437 13.7813 88.0313 14.9063 89.1563C16.0313 90.2813 17.7187 90.2813 18.8437 89.1563L19.6875 88.3125V112.5C19.6875 114.188 20.8125 115.313 22.5 115.313H59.0625C60.75 115.313 61.875 114.188 61.875 112.5C61.875 110.813 60.75 109.688 59.0625 109.688Z" fill="#BECE00"/>
<path d="M14.0625 73.125C14.0625 74.8125 15.1875 75.9375 16.875 75.9375C17.7188 75.9375 18.5625 75.6563 19.125 74.8125L26.7188 64.6875H61.875C63.5625 64.6875 64.6875 63.5625 64.6875 61.875V28.125C64.6875 26.4375 63.5625 25.3125 61.875 25.3125H11.25C9.5625 25.3125 8.4375 26.4375 8.4375 28.125V61.875C8.4375 63.5625 9.5625 64.6875 11.25 64.6875H14.0625V73.125ZM14.0625 30.9375H59.0625V59.0625H25.3125C24.4687 59.0625 23.625 59.3437 23.0625 60.1875L19.6875 64.6875V61.875C19.6875 60.1875 18.5625 59.0625 16.875 59.0625H14.0625V30.9375Z" fill="#BECE00"/>
<path d="M19.6875 47.8125H53.4375C55.125 47.8125 56.25 46.6875 56.25 45C56.25 43.3125 55.125 42.1875 53.4375 42.1875H19.6875C18 42.1875 16.875 43.3125 16.875 45C16.875 46.6875 18 47.8125 19.6875 47.8125Z" fill="#BECE00"/>
<path d="M19.6875 56.25H53.4375C55.125 56.25 56.25 55.125 56.25 53.4375C56.25 51.75 55.125 50.625 53.4375 50.625H19.6875C18 50.625 16.875 51.75 16.875 53.4375C16.875 55.125 18 56.25 19.6875 56.25Z" fill="#BECE00"/>
<path d="M168.75 25.3125H118.125C116.437 25.3125 115.312 26.4375 115.312 28.125V61.875C115.312 63.5625 116.437 64.6875 118.125 64.6875H168.75C170.438 64.6875 171.562 63.5625 171.562 61.875V28.125C171.562 26.4375 170.438 25.3125 168.75 25.3125ZM150.469 59.0625L144.563 52.3125L149.344 46.4062L154.969 52.5938V59.0625H150.469ZM154.688 30.9375V44.4375L151.312 40.5C150.75 39.6562 149.906 39.375 149.062 39.375C148.219 39.375 147.375 39.6562 146.813 40.5L140.625 48.0938L131.344 37.4063C131.063 36.8438 130.219 36.5625 129.375 36.5625C128.531 36.5625 127.688 36.8437 127.125 37.6875L120.938 45.2813V30.9375H154.688ZM120.938 54.5625L129.375 43.875L142.875 59.0625H120.938V54.5625ZM165.938 59.0625H160.312V30.9375H165.938V59.0625Z" fill="#BECE00"/>
<path d="M159.469 79.5938C158.344 78.4688 156.656 78.4688 155.531 79.5938L149.906 85.2187C148.781 86.3437 148.781 88.0313 149.906 89.1563C151.031 90.2813 152.719 90.2813 153.844 89.1563L154.688 88.3125V109.688H120.938C119.25 109.688 118.125 110.813 118.125 112.5C118.125 114.188 119.25 115.313 120.938 115.313H157.5C159.188 115.313 160.312 114.188 160.312 112.5V88.3125L161.156 89.1563C162.281 90.2813 163.969 90.2813 165.094 89.1563C166.219 88.0313 166.219 86.3437 165.094 85.2187L159.469 79.5938Z" fill="#BECE00"/>
</svg>
