<svg width="139" height="139" viewBox="0 0 139 139" fill="none" xmlns="http://www.w3.org/2000/svg">
<path d="M134.656 2.17188H82.5312C81.3302 2.17188 80.3594 3.14488 80.3594 4.34375V73.8438C80.3594 75.0426 81.3302 76.0156 82.5312 76.0156H134.656C135.857 76.0156 136.828 75.0426 136.828 73.8438V4.34375C136.828 3.14488 135.857 2.17188 134.656 2.17188ZM132.484 71.6719H84.7031V6.51562H132.484V71.6719Z" fill="#BECE00"/>
<path d="M130.312 82.5312H73.8438C70.2515 82.5312 67.3281 85.4546 67.3281 89.0469V130.312C67.3281 133.905 70.2515 136.828 73.8438 136.828H130.312C133.905 136.828 136.828 133.905 136.828 130.312V89.0469C136.828 85.4546 133.905 82.5312 130.312 82.5312ZM132.484 130.312C132.484 131.509 131.511 132.484 130.312 132.484H73.8438C72.6449 132.484 71.6719 131.509 71.6719 130.312V89.0469C71.6719 87.8502 72.6449 86.875 73.8438 86.875H130.312C131.511 86.875 132.484 87.8502 132.484 89.0469V130.312Z" fill="#BECE00"/>
<path d="M123.797 121.625H119.453C119.453 120.426 118.482 119.453 117.281 119.453C116.08 119.453 115.109 120.426 115.109 121.625H80.3595C77.4839 121.625 77.4861 125.969 80.3595 125.969H115.109C115.109 127.168 116.08 128.141 117.281 128.141C118.482 128.141 119.453 127.168 119.453 125.969H123.797C126.673 125.969 126.67 121.625 123.797 121.625Z" fill="#BECE00"/>
<path d="M71.6719 67.3281V15.2031C71.6719 11.6108 68.7485 8.6875 65.1562 8.6875H8.6875C5.09522 8.6875 2.17188 11.6108 2.17188 15.2031V67.3281C2.17188 70.9204 5.09522 73.8438 8.6875 73.8438H65.1562C68.7485 73.8438 71.6719 70.9204 71.6719 67.3281ZM67.3281 67.3281C67.3281 68.5248 66.3551 69.5 65.1562 69.5H8.6875C7.48863 69.5 6.51562 68.5248 6.51562 67.3281V15.2031C6.51562 14.0064 7.48863 13.0312 8.6875 13.0312H65.1562C66.3551 13.0312 67.3281 14.0064 67.3281 15.2031V67.3281Z" fill="#BECE00"/>
<path d="M45.6094 36.9219C50.4005 36.9219 54.2969 33.0255 54.2969 28.2344C54.2969 23.4432 50.4005 19.5469 45.6094 19.5469C40.8182 19.5469 36.9219 23.4432 36.9219 28.2344C36.9219 33.0255 40.8182 36.9219 45.6094 36.9219ZM45.6094 23.8906C48.005 23.8906 49.9531 25.8388 49.9531 28.2344C49.9531 30.63 48.005 32.5781 45.6094 32.5781C43.2138 32.5781 41.2656 30.63 41.2656 28.2344C41.2656 25.8388 43.2138 23.8906 45.6094 23.8906Z" fill="#BECE00"/>
<path d="M53.6606 44.0739C52.8114 43.2247 51.4387 43.2247 50.5895 44.0739L43.4376 51.2258L29.7699 37.5582C28.9207 36.709 27.5481 36.709 26.6989 37.5582L11.4958 52.7614C9.46292 54.7942 12.5361 57.8631 14.5668 55.8324L28.2344 42.1648L41.902 55.8324C42.7512 56.6816 44.1239 56.6816 44.9731 55.8324L52.1251 48.6804L59.277 55.8324C61.2795 57.8349 64.407 54.8181 62.3481 52.7614L53.6606 44.0739Z" fill="#BECE00"/>
<path d="M93.3907 17.375H115.109C117.985 17.375 117.983 13.0312 115.109 13.0312H93.3907C90.5152 13.0312 90.5173 17.375 93.3907 17.375Z" fill="#BECE00"/>
<path d="M93.3907 36.9219H123.797C126.673 36.9219 126.67 32.5781 123.797 32.5781H93.3907C90.5152 32.5781 90.5173 36.9219 93.3907 36.9219Z" fill="#BECE00"/>
<path d="M93.3907 56.4688H123.797C126.673 56.4688 126.67 52.125 123.797 52.125H93.3907C90.5152 52.125 90.5173 56.4688 93.3907 56.4688Z" fill="#BECE00"/>
<path d="M93.3907 65.1562H104.25C107.126 65.1562 107.123 60.8125 104.25 60.8125H93.3907C90.5152 60.8125 90.5173 65.1562 93.3907 65.1562Z" fill="#BECE00"/>
<path d="M93.3907 28.2344H97.7345C100.61 28.2344 100.608 23.8906 97.7345 23.8906H93.3907C90.5152 23.8906 90.5173 28.2344 93.3907 28.2344Z" fill="#BECE00"/>
<path d="M108.594 28.2344H123.797C126.673 28.2344 126.67 23.8906 123.797 23.8906H108.594C105.718 23.8906 105.72 28.2344 108.594 28.2344Z" fill="#BECE00"/>
<path d="M93.3907 47.7812H108.594C111.469 47.7812 111.467 43.4375 108.594 43.4375H93.3907C90.5152 43.4375 90.5173 47.7812 93.3907 47.7812Z" fill="#BECE00"/>
<path d="M123.797 43.4375H119.453C116.578 43.4375 116.58 47.7812 119.453 47.7812H123.797C126.673 47.7812 126.67 43.4375 123.797 43.4375Z" fill="#BECE00"/>
<path d="M32.5781 80.3594C15.8113 80.3594 2.17188 91.0776 2.17188 104.25C2.17188 109.612 4.47841 114.836 8.6875 119.049V134.656C8.6875 136.602 11.0396 137.547 12.3949 136.192L21.949 126.638C25.3023 127.637 28.8729 128.141 32.5781 128.141C49.345 128.141 62.9844 117.422 62.9844 104.25C62.9844 91.0776 49.345 80.3594 32.5781 80.3594ZM32.5781 123.797C28.8664 123.797 25.3262 123.23 22.051 122.111C21.2713 121.842 20.3983 122.042 19.814 122.631L13.0312 129.413V118.128C13.0312 117.524 12.7815 116.949 12.3406 116.538C8.52895 112.994 6.51562 108.744 6.51562 104.25C6.51562 93.4732 18.2068 84.7031 32.5781 84.7031C46.9494 84.7031 58.6406 93.4732 58.6406 104.25C58.6406 115.027 46.9494 123.797 32.5781 123.797Z" fill="#BECE00"/>
<path d="M32.5781 107.508C34.3774 107.508 35.8359 106.049 35.8359 104.25C35.8359 102.451 34.3774 100.992 32.5781 100.992C30.7789 100.992 29.3203 102.451 29.3203 104.25C29.3203 106.049 30.7789 107.508 32.5781 107.508Z" fill="#BECE00"/>
<path d="M47.7812 107.508C49.5805 107.508 51.0391 106.049 51.0391 104.25C51.0391 102.451 49.5805 100.992 47.7812 100.992C45.982 100.992 44.5234 102.451 44.5234 104.25C44.5234 106.049 45.982 107.508 47.7812 107.508Z" fill="#BECE00"/>
<path d="M17.375 107.508C19.1742 107.508 20.6328 106.049 20.6328 104.25C20.6328 102.451 19.1742 100.992 17.375 100.992C15.5758 100.992 14.1172 102.451 14.1172 104.25C14.1172 106.049 15.5758 107.508 17.375 107.508Z" fill="#BECE00"/>
<path d="M98.3034 116.66L112.74 108.342C115.885 106.533 115.885 101.978 112.74 100.167L98.3056 91.8529C95.1694 90.0373 91.2188 92.3156 91.2188 95.9382V112.57C91.2188 116.241 95.2041 118.439 98.3034 116.66ZM95.5625 95.9382C95.5625 95.6581 95.8796 95.4669 96.1359 95.6168L110.572 103.933C110.82 104.076 110.82 104.435 110.572 104.578L96.138 112.894C95.8818 113.037 95.5625 112.861 95.5625 112.573V95.9382Z" fill="#BECE00"/>
</svg>
