<svg width="133" height="133" viewBox="0 0 133 133" fill="none" xmlns="http://www.w3.org/2000/svg">
<path d="M32.5447 128.264H17.3102C16.484 128.264 15.7988 127.579 15.7988 126.753V85.9462C15.7988 85.12 16.484 84.4348 17.3102 84.4348H32.5447C33.3709 84.4348 34.0561 85.12 34.0561 85.9462V126.753C34.0561 127.579 33.3709 128.264 32.5447 128.264ZM18.8216 125.242H31.0334V87.4576H18.8216V125.242Z" fill="#BECE00"/>
<path d="M60.253 128.264H45.0184C44.1922 128.264 43.5071 127.579 43.5071 126.753V67.9307C43.5071 67.1045 44.1922 66.4194 45.0184 66.4194H60.253C61.0792 66.4194 61.7644 67.1045 61.7644 67.9307V126.753C61.7644 127.579 61.0994 128.264 60.253 128.264ZM46.55 125.242H58.7618V69.4421H46.55V125.242Z" fill="#BECE00"/>
<path d="M87.9614 128.264H72.747C71.9207 128.264 71.2356 127.579 71.2356 126.753V92.6365C71.2356 91.8103 71.9207 91.1252 72.747 91.1252H87.9815C88.8077 91.1252 89.4929 91.8103 89.4929 92.6365V126.753C89.4727 127.579 88.8077 128.264 87.9614 128.264ZM74.2583 125.242H86.4701V94.1479H74.2583V125.242Z" fill="#BECE00"/>
<path d="M115.69 128.264H100.455C99.629 128.264 98.9438 127.579 98.9438 126.753V59.7492C98.9438 58.923 99.629 58.2379 100.455 58.2379H115.69C116.516 58.2379 117.201 58.923 117.201 59.7492V126.753C117.201 127.579 116.516 128.264 115.69 128.264ZM101.967 125.242H114.178V61.2606H101.967V125.242Z" fill="#BECE00"/>
<path d="M86.6717 21.8442C86.4903 21.8442 86.309 21.8039 86.1075 21.7435C85.3216 21.4412 84.9588 20.5545 85.2611 19.7888L90.8229 5.70287C91.1252 4.91696 92.0119 4.55423 92.7776 4.85651C93.5635 5.15878 93.9263 6.04545 93.624 6.8112L88.0622 20.8971C87.8405 21.4815 87.2763 21.8442 86.6717 21.8442Z" fill="#BECE00"/>
<path d="M117.02 21.8442H99.0044C98.4603 21.8442 97.9364 21.542 97.6744 21.0583C97.4124 20.5747 97.4326 19.9903 97.7348 19.5268L106.763 5.4409C107.045 4.99757 107.528 4.7356 108.032 4.7356C108.858 4.7356 109.584 5.42075 109.584 6.24696C109.584 6.69029 109.403 7.09332 109.1 7.37544L101.765 18.8215H117.02C117.846 18.8215 118.531 19.5067 118.531 20.3329C118.531 21.1591 117.846 21.8442 117.02 21.8442Z" fill="#BECE00"/>
<path d="M129.473 21.8442C128.869 21.8442 128.305 21.4815 128.063 20.8971L123.75 9.99515L118.37 20.9979C118.007 21.7435 117.1 22.0659 116.355 21.683C115.609 21.3203 115.287 20.4135 115.67 19.6679L122.561 5.58196C122.823 5.03787 123.367 4.6953 123.972 4.7356C124.577 4.75575 125.101 5.13863 125.322 5.68272L130.884 19.7686C131.186 20.5545 130.803 21.4211 130.038 21.7233C129.836 21.8039 129.655 21.8442 129.473 21.8442Z" fill="#BECE00"/>
<path d="M108.072 53.8045C107.851 53.8045 107.649 53.7642 107.448 53.6635C106.783 53.3612 106.42 52.5954 106.621 51.8901L115.569 19.9298C115.75 19.285 116.355 18.8215 117.02 18.8215H129.473C130.038 18.8215 130.541 19.1238 130.803 19.6276C131.065 20.1112 131.045 20.7157 130.723 21.1792L109.322 53.1395C109.04 53.5627 108.556 53.8045 108.072 53.8045ZM118.168 21.8442L112.083 43.5877L126.652 21.8442H118.168Z" fill="#BECE00"/>
<path d="M108.073 53.8045C107.589 53.8045 107.105 53.5627 106.823 53.1395L85.4223 21.1792C85.12 20.7157 85.0797 20.1112 85.3417 19.6276C85.6036 19.1439 86.1074 18.8215 86.6717 18.8215H99.0044C99.6694 18.8215 100.274 19.2648 100.455 19.9298L109.523 51.8901C109.725 52.5954 109.382 53.3612 108.697 53.6836C108.496 53.7642 108.294 53.8045 108.073 53.8045ZM89.513 21.8442L104.022 43.5071L97.8759 21.8442H89.513Z" fill="#BECE00"/>
<path d="M99.0043 21.8442C98.4401 21.8442 97.896 21.5218 97.634 20.9979L90.8631 6.91196C90.6415 6.42832 90.6818 5.88423 90.9437 5.4409C91.2259 4.99757 91.7095 4.7356 92.2133 4.7356H108.012C108.838 4.7356 109.523 5.42075 109.523 6.24696C109.523 7.07317 108.838 7.75832 108.012 7.75832H94.6113L100.334 19.6679C100.697 20.4135 100.375 21.3203 99.629 21.683C99.4477 21.8039 99.226 21.8442 99.0043 21.8442Z" fill="#BECE00"/>
<path d="M117.02 21.8442C116.516 21.8442 116.032 21.6024 115.75 21.1389L106.843 7.05302C106.541 6.58954 106.521 6.00514 106.803 5.5215C107.085 5.03787 107.569 4.7356 108.133 4.7356H123.932C124.758 4.7356 125.443 5.42075 125.443 6.24696C125.443 7.07317 124.758 7.75832 123.932 7.75832H110.873L118.309 19.5268C118.753 20.2321 118.551 21.1591 117.846 21.6024C117.584 21.7636 117.302 21.8442 117.02 21.8442Z" fill="#BECE00"/>
<path d="M15.8592 50.5601C15.5771 50.5601 15.295 50.4795 15.0531 50.3183C14.3478 49.875 14.1463 48.9279 14.5897 48.2226L23.6175 34.1568C23.8997 33.7336 24.3833 33.4716 24.8871 33.4716C25.7133 33.4716 26.4387 34.1568 26.4387 34.983C26.4387 35.4263 26.2574 35.8294 25.9551 36.1115L17.1287 49.875C16.8466 50.3183 16.363 50.5601 15.8592 50.5601Z" fill="#BECE00"/>
<path d="M3.52645 50.5601C3.34509 50.5601 3.14357 50.5198 2.96221 50.4594C2.1763 50.1571 1.81357 49.2704 2.11584 48.5047L7.67766 34.4389C7.97993 33.653 8.8666 33.2903 9.63236 33.5926C10.4183 33.8948 10.781 34.7815 10.4787 35.5473L4.9169 49.613C4.69524 50.1974 4.131 50.5601 3.52645 50.5601Z" fill="#BECE00"/>
<path d="M46.3283 50.5601H33.8747C33.3507 50.5601 32.8671 50.2982 32.6051 49.8548L23.6981 35.7891C23.3959 35.3256 23.3757 34.7412 23.6578 34.2576C23.9198 33.7739 24.4236 33.4716 24.9878 33.4716H40.7866C41.4113 33.4716 41.9554 33.8545 42.1972 34.4188L47.759 48.4845C47.9404 48.948 47.88 49.472 47.5978 49.8951C47.2956 50.3183 46.8321 50.5601 46.3283 50.5601ZM34.7009 47.5374H44.0915L39.7186 36.4944H27.6881L34.7009 47.5374Z" fill="#BECE00"/>
<path d="M15.8592 50.5601H3.5265C2.70029 50.5601 2.01514 49.875 2.01514 49.0488C2.01514 48.2226 2.70029 47.5374 3.5265 47.5374H15.8592C16.6854 47.5374 17.3706 48.2226 17.3706 49.0488C17.3706 49.875 16.6854 50.5601 15.8592 50.5601Z" fill="#BECE00"/>
<path d="M24.9273 82.5406C24.4235 82.5406 23.96 82.2988 23.6779 81.8756L2.277 49.8951C1.81352 49.21 1.99488 48.2629 2.70019 47.7994C3.38534 47.3359 4.33246 47.5173 4.79594 48.2226L24.9475 78.3289L45.099 48.2226C45.5625 47.5374 46.5096 47.3359 47.1947 47.7994C47.8799 48.2629 48.0814 49.21 47.6179 49.8951L26.1767 81.8756C25.8946 82.2988 25.4311 82.5406 24.9273 82.5406Z" fill="#BECE00"/>
<path d="M24.9273 82.5406C24.2623 82.5406 23.6577 82.0973 23.4763 81.4323L14.4082 49.4518C14.2873 48.9883 14.3679 48.5047 14.65 48.1218C14.9321 47.7389 15.3754 47.5173 15.8591 47.5173H33.8745C34.338 47.5173 34.8015 47.7389 35.0836 48.1218C35.3657 48.5047 35.4665 48.9883 35.3254 49.4518L26.3782 81.4323C26.1968 82.0973 25.6124 82.5406 24.9273 82.5406ZM17.8541 50.5602L24.9071 75.4473L31.8795 50.5602H17.8541Z" fill="#BECE00"/>
<path d="M15.8591 50.5602C15.2949 50.5602 14.7508 50.2377 14.4888 49.7138L7.71789 35.648C7.49623 35.1845 7.51638 34.6203 7.7985 34.1971C8.08062 33.7538 8.56426 33.4918 9.06804 33.4918H24.8668C25.693 33.4918 26.3782 34.177 26.3782 35.0032C26.3782 35.8294 25.693 36.5145 24.8668 36.5145H11.4862L17.2093 48.4039C17.572 49.1495 17.2496 50.0564 16.504 50.4191C16.3024 50.5199 16.0808 50.5602 15.8591 50.5602Z" fill="#BECE00"/>
<path d="M33.8747 50.5601C33.6531 50.5601 33.4314 50.5198 33.2097 50.3989C32.4641 50.0362 32.1417 49.1294 32.5246 48.3838L39.4164 34.318C39.7791 33.5724 40.686 33.25 41.4316 33.6329C42.1772 33.9956 42.4996 34.9024 42.1167 35.648L35.2249 49.7138C34.9629 50.2579 34.439 50.5601 33.8747 50.5601Z" fill="#BECE00"/>
<path d="M54.8724 36.5952C54.0462 36.5952 53.3611 35.91 53.3611 35.0838V21.018L51.487 23.3959C50.9832 24.0408 50.0159 24.1617 49.3711 23.6579C48.7061 23.1339 48.6053 22.1868 49.1091 21.542L53.6835 15.7182C54.0865 15.2144 54.7717 15.0129 55.3561 15.2144C55.9606 15.4159 56.3636 16.0003 56.3636 16.6452V35.0838C56.3838 35.9302 55.6986 36.5952 54.8724 36.5952Z" fill="#BECE00"/>
<path d="M59.5879 23.3556C59.1849 23.3556 58.7617 23.1944 58.4595 22.8518L53.744 17.6527C53.1798 17.028 53.2402 16.0809 53.8448 15.5166C54.4695 14.9524 55.4166 15.0129 55.9808 15.6174L60.6963 20.8165C61.2605 21.4412 61.2001 22.3883 60.5955 22.9526C60.3134 23.2145 59.9507 23.3556 59.5879 23.3556Z" fill="#BECE00"/>
<path d="M63.0338 59.5074C62.2076 59.5074 61.5225 58.8223 61.5225 57.9961V43.9303L59.6484 46.3082C59.1446 46.953 58.1773 47.0739 57.5325 46.5701C56.8675 46.0462 56.7667 45.0991 57.2705 44.4542L61.8449 38.6304C62.2479 38.1267 62.9331 37.9251 63.5175 38.1267C64.122 38.3282 64.525 38.9126 64.525 39.5574V57.9961C64.5452 58.8424 63.86 59.5074 63.0338 59.5074Z" fill="#BECE00"/>
<path d="M67.7493 46.2679C67.3463 46.2679 66.9231 46.1067 66.6208 45.7641L61.9054 40.565C61.3411 39.9403 61.4016 38.9932 62.0061 38.4289C62.6308 37.8647 63.578 37.9252 64.1422 38.5297L68.8576 43.7288C69.4219 44.3535 69.3614 45.3006 68.7569 45.8648C68.4748 46.1268 68.112 46.2679 67.7493 46.2679Z" fill="#BECE00"/>
<path d="M84.5355 71.6991C83.7093 71.6991 83.0242 71.0139 83.0242 70.1877V56.1219L81.1501 58.4998C80.6463 59.1447 79.679 59.2656 79.0342 58.7618C78.3692 58.2379 78.2684 57.2907 78.7722 56.6459L83.3466 50.8221C83.7496 50.3183 84.4348 50.1168 85.0192 50.3183C85.6237 50.5198 86.0267 51.1042 86.0267 51.7491V70.1877C86.0469 71.0341 85.3617 71.6991 84.5355 71.6991Z" fill="#BECE00"/>
<path d="M89.2511 58.4596C88.8481 58.4596 88.4249 58.2983 88.1428 57.9558L83.4273 52.7567C82.8631 52.132 82.9034 51.1849 83.5281 50.6206C84.1528 50.0564 85.0999 50.0967 85.6641 50.7214L90.3796 55.9205C90.9438 56.5452 90.9035 57.4923 90.2788 58.0565C89.9766 58.3185 89.6138 58.4596 89.2511 58.4596Z" fill="#BECE00"/>
<path d="M100.455 128.264H32.5446C31.7184 128.264 31.0332 127.579 31.0332 126.753C31.0332 125.927 31.7184 125.242 32.5446 125.242H100.455C101.281 125.242 101.967 125.927 101.967 126.753C101.967 127.579 101.281 128.264 100.455 128.264Z" fill="#BECE00"/>
</svg>
