<svg width="210" height="90" viewBox="0 0 210 90" fill="none" xmlns="http://www.w3.org/2000/svg">
<g clip-path="url(#clip0_1087_4807)">
<path d="M33.4401 0C35.2097 1.99286 36.9472 4.02857 38.7701 5.96786C39.463 6.70714 39.3457 7.09286 38.7061 7.75714C30.061 16.7357 21.4371 25.7357 12.8239 34.7571C7.48329 40.35 7.37669 49.0071 12.5361 54.4714C17.3224 59.5393 25.0188 59.7107 29.9117 54.7714C33.7386 50.8929 37.4802 46.9179 41.2645 42.9857C42.5117 41.7 43.9615 41.2607 45.6244 41.85C47.2873 42.4393 48.2361 43.725 48.4919 45.5571C48.7158 47.1429 48.1828 48.4714 47.1274 49.575C42.2772 54.6429 37.4269 59.7107 32.5767 64.7786C29.0056 68.5071 25.4026 72.225 21.8635 75.9857C21.2452 76.65 20.9148 76.6821 20.2858 75.975C15.862 70.9929 11.3848 66.0643 6.93963 61.1036C4.61577 58.5107 2.78227 55.4679 1.58836 52.1036C0.330495 48.5571 -0.234479 44.7214 0.0746579 40.9393C0.138617 40.1893 0.287856 39.4607 0.458414 38.7321C0.810191 37.2107 1.33253 35.7321 1.98278 34.3393C3.30461 31.5429 5.17009 29.0786 7.22745 26.8714C11.0863 22.7143 15.0518 18.6857 18.9533 14.5929C23.2813 10.05 27.6305 5.53929 31.9797 1.01786C32.3528 0.632143 32.7472 0.3 33.2056 0.0214286H33.4401V0Z" fill="white"/>
<path d="M65.3239 45.7071C65.3025 52.7142 62.7761 58.0178 58.6508 62.3999C50.0482 71.5499 41.3071 80.5499 32.6406 89.6249C32.1503 90.1392 31.8944 90.1178 31.436 89.6035C29.8157 87.7392 28.1848 85.8856 26.4899 84.1071C25.9142 83.4963 26.0102 83.1963 26.5431 82.6499C32.6939 76.2749 38.8127 69.8678 44.9421 63.4821C47.5538 60.7606 50.1975 58.0713 52.7665 55.2963C56.3695 51.4071 57.5954 46.7356 56.0924 41.4856C54.6107 36.2999 51.2315 33.0856 46.264 32.0999C42.0746 31.2642 38.3543 32.507 35.2523 35.6892C31.5107 39.5356 27.8117 43.4356 24.0807 47.3035C22.8655 48.5678 21.3944 48.9213 19.8061 48.3963C18.1964 47.8606 17.2264 46.607 16.9279 44.8392C16.6188 43.0392 17.3223 41.6356 18.5056 40.4035C25.5305 33.0963 32.5234 25.7785 39.5376 18.4606C40.9234 17.0142 42.3411 15.5785 43.6949 14.0999C44.1853 13.5642 44.4518 13.4785 44.9954 14.0785C49.7284 19.3928 54.6 24.557 59.2051 29.9999C63.0746 34.5642 65.2173 40.0285 65.3132 45.7178L65.3239 45.7071Z" fill="white"/>
<path d="M91.7711 56.0786C91.398 55.8 90.9396 55.5215 90.4066 55.2536C89.8736 54.9857 89.2767 54.7393 88.6157 54.5036C87.9548 54.2786 87.2619 54.0965 86.5157 53.9572C85.7696 53.8179 85.0127 53.7429 84.2345 53.7429C83.403 53.7429 82.6569 53.8393 81.9959 54.0215C81.335 54.2036 80.7594 54.4607 80.2797 54.7929C79.8 55.125 79.4376 55.5322 79.1711 56.025C78.9152 56.5179 78.7873 57.0536 78.7873 57.6429C78.7873 58.6929 79.1924 59.4857 79.9919 60.0215C80.7914 60.5572 81.9533 60.9322 83.4777 61.125L86.2066 61.4893C88.6584 61.8429 90.5558 62.5715 91.9097 63.6857C93.2635 64.8 93.935 66.375 93.935 68.3893C93.935 69.5786 93.7005 70.6393 93.2208 71.5822C92.7411 72.525 92.0696 73.3286 91.1954 73.9929C90.3213 74.6572 89.2553 75.1607 88.0081 75.525C86.7609 75.8786 85.3538 76.0607 83.7975 76.0607C83.0513 76.0607 82.2731 76.0072 81.4523 75.9C80.6315 75.7929 79.8107 75.6215 78.9685 75.3643C78.1371 75.1072 77.3056 74.7857 76.4954 74.3786C75.6853 73.9822 74.9178 73.4786 74.1822 72.8893L75.8558 69.9643C76.2929 70.3286 76.7726 70.6715 77.2949 70.9929C77.8173 71.3143 78.3929 71.6036 79.0432 71.8607C79.6934 72.1179 80.4076 72.3108 81.1965 72.45C81.9853 72.5893 82.8594 72.6643 83.8401 72.6643C85.7909 72.6643 87.3259 72.3215 88.4772 71.6465C89.6178 70.9715 90.1934 69.975 90.1934 68.6679C90.1934 67.6715 89.799 66.8786 89.0102 66.2786C88.2213 65.6786 87.0168 65.2715 85.3751 65.0679L82.6249 64.725C80.0132 64.3715 78.0944 63.6107 76.8579 62.4215C75.6213 61.2322 75.0137 59.7215 75.0137 57.8679C75.0137 56.7 75.2376 55.65 75.6746 54.7179C76.1117 53.7857 76.73 52.9929 77.5401 52.35C78.3396 51.7072 79.3097 51.2143 80.4503 50.8715C81.5802 50.5286 82.8381 50.3572 84.2239 50.3572C86.0361 50.3572 87.7416 50.6036 89.3193 51.1072C90.897 51.6 92.2508 52.2536 93.3701 53.0572L91.7924 56.0893L91.7711 56.0786Z" fill="white"/>
<path d="M118.229 75.5892H114.605V71.9035C113.677 73.1785 112.526 74.1964 111.14 74.9464C109.754 75.7071 108.102 76.0821 106.194 76.0821C104.574 76.0821 103.06 75.7607 101.663 75.1178C100.256 74.4749 99.0411 73.5749 98.0178 72.4392C96.9838 71.2928 96.1736 69.9428 95.5873 68.3571C94.9904 66.7821 94.7025 65.0571 94.7025 63.1928C94.7025 61.3285 95.001 59.6357 95.5873 58.05C96.1736 56.4749 96.9944 55.1142 98.0178 53.9678C99.0518 52.8214 100.267 51.9321 101.663 51.2892C103.071 50.6464 104.574 50.325 106.194 50.325C108.102 50.325 109.754 50.7107 111.14 51.4714C112.526 52.2428 113.677 53.2499 114.605 54.5035V50.8178H118.229V75.5892ZM106.631 53.9892C105.394 53.9892 104.275 54.225 103.262 54.7071C102.25 55.1892 101.386 55.8428 100.661 56.6785C99.9366 57.5142 99.3822 58.4892 98.9878 59.6035C98.5934 60.7178 98.3909 61.9178 98.3909 63.1821C98.3909 64.4464 98.5934 65.6785 98.9878 66.7928C99.3822 67.9071 99.9472 68.8821 100.683 69.7178C101.408 70.5535 102.282 71.2178 103.294 71.6892C104.307 72.1714 105.426 72.4071 106.642 72.4071C107.857 72.4071 108.944 72.1714 109.946 71.6999C110.948 71.2285 111.812 70.5857 112.537 69.7607C113.261 68.9464 113.826 67.9607 114.231 66.8357C114.637 65.7 114.839 64.4785 114.839 63.1714C114.839 61.8642 114.637 60.6428 114.231 59.5285C113.826 58.4035 113.261 57.4285 112.537 56.6142C111.812 55.7999 110.948 55.1464 109.946 54.6749C108.944 54.2035 107.836 53.9678 106.642 53.9678L106.631 53.9892Z" fill="white"/>
<path d="M133.707 50.3249C135.136 50.3249 136.436 50.5606 137.609 51.0321C138.781 51.5035 139.794 52.1678 140.636 53.0356C141.478 53.9035 142.139 54.9428 142.608 56.1642C143.077 57.3856 143.312 58.7464 143.312 60.2464V75.5999H139.687V61.5321C139.687 59.1642 139.112 57.3214 137.96 56.0142C136.809 54.7071 135.168 54.0535 133.046 54.0535C132.076 54.0535 131.159 54.2249 130.307 54.5785C129.454 54.9321 128.708 55.4249 128.068 56.0785C127.428 56.7321 126.917 57.5249 126.544 58.4678C126.171 59.4106 125.989 60.4606 125.989 61.6285V75.5892H122.344V50.8178H125.947V54.3535C126.416 53.6249 126.949 53.0035 127.556 52.4785C128.153 51.9642 128.793 51.5464 129.475 51.2249C130.157 50.9035 130.85 50.6678 131.564 50.5285C132.279 50.3892 132.993 50.3142 133.707 50.3142V50.3249Z" fill="white"/>
<path d="M157.66 50.3249C159.376 50.3249 160.975 50.657 162.436 51.3213C163.907 51.9856 165.154 52.9499 166.188 54.2249L163.853 56.8713C162.979 55.9606 162.02 55.2535 160.996 54.7499C159.962 54.2463 158.822 53.9892 157.553 53.9892C156.402 53.9892 155.336 54.2249 154.345 54.6856C153.353 55.1463 152.501 55.7892 151.765 56.5928C151.04 57.407 150.464 58.3713 150.049 59.507C149.633 60.6428 149.43 61.8749 149.43 63.1928C149.43 64.5106 149.633 65.7642 150.049 66.8892C150.464 68.0142 151.029 68.9892 151.765 69.8035C152.49 70.6285 153.353 71.2606 154.345 71.7213C155.336 72.182 156.402 72.4177 157.553 72.4177C158.822 72.4177 159.994 72.1499 161.071 71.6035C162.148 71.057 163.107 70.3606 163.928 69.5142L166.188 72.182C165.132 73.457 163.875 74.4213 162.414 75.0856C160.954 75.7499 159.365 76.082 157.649 76.082C155.933 76.082 154.259 75.7499 152.799 75.0963C151.328 74.4427 150.07 73.5428 149.025 72.3856C147.981 71.2392 147.171 69.8678 146.595 68.2928C146.019 66.7178 145.731 65.0142 145.731 63.182C145.731 61.3499 146.019 59.6463 146.595 58.082C147.171 56.5178 147.981 55.157 149.025 53.9999C150.07 52.8535 151.328 51.9428 152.799 51.2892C154.27 50.6356 155.88 50.3035 157.649 50.3035L157.66 50.3249Z" fill="white"/>
<path d="M188.648 65.2608C188.648 67.0929 188.36 68.6893 187.795 70.05C187.23 71.4108 186.463 72.5358 185.493 73.4358C184.523 74.3358 183.414 75 182.146 75.4393C180.877 75.8786 179.555 76.0929 178.18 76.0929C176.805 76.0929 175.451 75.8786 174.193 75.4393C172.925 75 171.816 74.3358 170.857 73.4358C169.897 72.5358 169.141 71.4108 168.576 70.05C168.011 68.6893 167.723 67.0929 167.723 65.2608V50.8286H171.347V64.8965C171.347 66.1822 171.518 67.3072 171.859 68.2393C172.2 69.1822 172.669 69.9643 173.277 70.575C173.884 71.1965 174.609 71.6572 175.441 71.9572C176.272 72.2572 177.189 72.4179 178.18 72.4179C179.172 72.4179 180.078 72.2679 180.909 71.9572C181.741 71.6572 182.455 71.1858 183.062 70.575C183.67 69.9536 184.15 69.1715 184.48 68.2393C184.821 67.2965 184.992 66.1822 184.992 64.8965V50.8286H188.638V65.2608H188.648Z" fill="white"/>
<path d="M207.836 56.0786C207.463 55.8 207.005 55.5215 206.472 55.2536C205.939 54.9857 205.342 54.7393 204.681 54.5036C204.02 54.2786 203.327 54.0965 202.581 53.9572C201.834 53.8179 201.078 53.7429 200.299 53.7429C199.468 53.7429 198.722 53.8393 198.061 54.0215C197.4 54.2036 196.824 54.4607 196.345 54.7929C195.865 55.125 195.503 55.5322 195.236 56.025C194.98 56.5179 194.852 57.0536 194.852 57.6429C194.852 58.6929 195.257 59.4857 196.057 60.0215C196.856 60.5572 198.018 60.9322 199.543 61.125L202.272 61.4893C204.723 61.8429 206.621 62.5715 207.975 63.6857C209.328 64.8 210 66.375 210 68.3893C210 69.5786 209.765 70.6393 209.286 71.5822C208.806 72.525 208.134 73.3286 207.26 73.9929C206.386 74.6572 205.32 75.1607 204.073 75.525C202.826 75.8786 201.419 76.0607 199.862 76.0607C199.116 76.0607 198.338 76.0072 197.517 75.9C196.696 75.7929 195.876 75.6215 195.033 75.3643C194.202 75.1072 193.371 74.7857 192.56 74.3786C191.75 73.9822 190.983 73.4786 190.247 72.8893L191.921 69.9643C192.358 70.3286 192.838 70.6715 193.36 70.9929C193.882 71.3143 194.458 71.6036 195.108 71.8607C195.758 72.1179 196.473 72.3108 197.261 72.45C198.05 72.5893 198.924 72.6643 199.905 72.6643C201.856 72.6643 203.391 72.3215 204.542 71.6465C205.683 70.9715 206.258 69.975 206.258 68.6679C206.258 67.6715 205.864 66.8786 205.075 66.2786C204.286 65.6786 203.082 65.2715 201.44 65.0679L198.69 64.725C196.078 64.3715 194.159 63.6107 192.923 62.4215C191.686 61.2322 191.079 59.7215 191.079 57.8679C191.079 56.7 191.303 55.65 191.74 54.7179C192.177 53.7857 192.795 52.9929 193.605 52.35C194.405 51.7072 195.375 51.2143 196.515 50.8715C197.645 50.5286 198.903 50.3572 200.289 50.3572C202.101 50.3572 203.807 50.6036 205.384 51.1072C206.962 51.6 208.316 52.2536 209.435 53.0572L207.857 56.0893L207.836 56.0786Z" fill="white"/>
<path d="M75.5041 17.2715H78.6594V20.1965H78.7447C80.2797 17.925 82.4437 16.8 85.3218 16.8C87.8482 16.8 90.0975 17.7322 90.9289 20.1965C92.3041 18.0322 94.6706 16.8 97.3142 16.8C101.376 16.8 104.105 18.4608 104.105 22.5858V37.2001H100.757V24.1286C100.757 21.6536 100.086 19.6929 96.8132 19.6929C93.5406 19.6929 91.4939 21.7072 91.4939 24.7822V37.2001H88.136V24.1286C88.136 21.5358 87.3046 19.6929 84.3091 19.6929C80.365 19.6929 78.8726 23.2393 78.8726 24.7822V37.2001H75.5147V17.2715" fill="white"/>
<path d="M125.712 37.1251C125.115 37.4787 124.294 37.6608 123.303 37.6608C121.565 37.6608 120.457 36.7394 120.457 34.5751C118.602 36.7394 116.118 37.6608 113.283 37.6608C109.573 37.6608 106.535 36.0858 106.535 32.0786C106.535 27.5679 109.968 26.5608 113.432 25.9501C117.099 25.2108 120.297 25.5215 120.297 23.0251C120.297 20.1322 117.845 19.7036 115.756 19.7036C112.92 19.7036 110.831 20.5501 110.671 23.4858H107.313C107.516 18.5572 111.375 16.8108 115.948 16.8108C119.615 16.8108 123.602 17.6144 123.602 22.2858V32.5394C123.602 34.0715 123.602 34.7679 124.668 34.7679C124.987 34.7679 125.339 34.6929 125.691 34.5751V37.1144M120.265 26.9036C117.664 28.8001 110.095 26.9465 110.095 31.8429C110.095 34.0072 111.993 34.7679 114.04 34.7679C118.453 34.7679 120.265 32.1108 120.265 30.2679V26.9036Z" fill="white"/>
<path d="M144.793 35.518C144.793 42.0322 141.787 45.3108 135.327 45.3108C131.5 45.3108 127.087 43.768 126.885 39.4394H130.243C130.36 41.7965 133.355 42.6858 135.519 42.6858C139.9 42.6858 141.638 39.6001 141.638 35.1322V33.8251H141.553C140.412 36.2465 137.8 37.4465 135.21 37.4465C129.134 37.4465 126.096 32.7858 126.096 27.3537C126.096 22.6394 128.43 16.8215 135.519 16.8215C138.078 16.8215 140.37 17.9358 141.585 20.143H141.627V17.293H144.783V35.5287M141.478 26.8394C141.478 23.3251 139.9 19.7037 135.679 19.7037C131.458 19.7037 129.646 23.1322 129.646 26.9572C129.646 30.5358 130.978 34.5537 135.391 34.5537C139.805 34.5537 141.468 30.5787 141.468 26.8501L141.478 26.8394Z" fill="white"/>
<path d="M148.258 17.2715H151.413V20.4322H151.498C152.916 17.9786 155.165 16.8108 158.129 16.8108C163.491 16.8108 165.143 19.8215 165.143 24.0965V37.2001H161.785V23.7001C161.785 21.2358 160.208 19.6929 157.649 19.6929C153.588 19.6929 151.616 22.3608 151.616 25.9394V37.2001H148.269V17.2715" fill="white"/>
<path d="M177.359 16.8108C183.83 16.8108 187.252 21.3965 187.252 27.2572C187.252 33.1179 183.83 37.6608 177.359 37.6608C170.889 37.6608 167.467 33.0858 167.467 27.2572C167.467 21.4286 170.899 16.8108 177.359 16.8108ZM177.359 34.7786C180.877 34.7786 183.702 32.0894 183.702 27.2679C183.702 22.4465 180.867 19.7144 177.359 19.7144C173.852 19.7144 171.006 22.4572 171.006 27.2679C171.006 32.0786 173.842 34.7786 177.359 34.7786Z" fill="white"/>
<path d="M189.661 17.2715H192.816V20.4322H192.902C194.319 17.9786 196.569 16.8108 199.532 16.8108C204.894 16.8108 206.546 19.8215 206.546 24.0965V37.2001H203.199V23.7001C203.199 21.2358 201.621 19.6929 199.063 19.6929C194.991 19.6929 193.029 22.3608 193.029 25.9394V37.2001H189.672V17.2715" fill="white"/>
</g>
<defs>
<clipPath id="clip0_1087_4807">
<rect width="210" height="90" fill="white"/>
</clipPath>
</defs>
</svg>
