<svg width="150" height="64" viewBox="0 0 150 64" fill="none" xmlns="http://www.w3.org/2000/svg">
<g clip-path="url(#clip0_635_3501)">
<path d="M23.8857 0C25.1496 1.41714 26.3907 2.86476 27.6928 4.24381C28.1877 4.76952 28.1039 5.04381 27.6471 5.51619C21.472 11.901 15.3121 18.301 9.15978 24.7162C5.34506 28.6933 5.26892 34.8495 8.95419 38.7352C12.373 42.339 17.8704 42.4609 21.3654 38.9486C24.0989 36.1905 26.7715 33.3638 29.4745 30.5676C30.3654 29.6533 31.4009 29.341 32.5887 29.76C33.7765 30.179 34.4542 31.0933 34.6369 32.3962C34.7968 33.5238 34.4161 34.4686 33.6623 35.2533C30.1978 38.8571 26.7334 42.4609 23.2689 46.0648C20.7182 48.7162 18.1445 51.36 15.6166 54.0343C15.175 54.5067 14.939 54.5295 14.4897 54.0267C11.3298 50.4838 8.13186 46.979 4.95673 43.4514C3.29683 41.6076 1.98719 39.4438 1.1344 37.0514C0.23592 34.5295 -0.167633 31.8019 0.0531788 29.1124C0.0988641 28.579 0.205463 28.061 0.327291 27.5429C0.57856 26.461 0.951656 25.4095 1.41612 24.419C2.36029 22.4305 3.69277 20.6781 5.16232 19.1086C7.91866 16.1524 10.7511 13.2876 13.538 10.3771C16.6293 7.14667 19.7359 3.93905 22.8425 0.723809C23.109 0.449524 23.3907 0.213333 23.7182 0.0152381H23.8857V0Z" fill="#BECE00"/>
<path d="M46.6599 32.5029C46.6447 37.4858 44.8401 41.2572 41.8934 44.3734C35.7487 50.8801 29.5051 57.2801 23.3147 63.7334C22.9645 64.0991 22.7817 64.0839 22.4543 63.7182C21.297 62.3924 20.132 61.0743 18.9213 59.8096C18.5102 59.3753 18.5787 59.162 18.9594 58.7734C23.3528 54.2401 27.7234 49.6839 32.1015 45.1429C33.967 43.2077 35.8553 41.2953 37.6904 39.322C40.264 36.5562 41.1396 33.2343 40.066 29.501C39.0076 25.8134 36.5939 23.5277 33.0457 22.8267C30.0533 22.2324 27.3959 23.1162 25.1802 25.3791C22.5076 28.1143 19.8655 30.8877 17.2005 33.6382C16.3325 34.5372 15.2817 34.7886 14.1472 34.4153C12.9975 34.0343 12.3046 33.1429 12.0914 31.8858C11.8706 30.6058 12.3731 29.6077 13.2183 28.7315C18.236 23.5353 23.231 18.3315 28.2411 13.1277C29.231 12.0991 30.2437 11.0782 31.2107 10.0267C31.5609 9.64577 31.7513 9.58482 32.1396 10.0115C35.5203 13.7905 39 17.4629 42.2893 21.3334C45.0533 24.5791 46.5838 28.4648 46.6523 32.5105L46.6599 32.5029Z" fill="#464646"/>
<path d="M65.5508 39.8781C65.2843 39.68 64.9568 39.482 64.5761 39.2915C64.1954 39.101 63.769 38.9258 63.297 38.7581C62.8249 38.5981 62.33 38.4686 61.797 38.3696C61.264 38.2705 60.7233 38.2172 60.1675 38.2172C59.5736 38.2172 59.0406 38.2858 58.5685 38.4153C58.0964 38.5448 57.6853 38.7277 57.3426 38.9639C57 39.2 56.7411 39.4896 56.5508 39.84C56.368 40.1905 56.2767 40.5715 56.2767 40.9905C56.2767 41.7372 56.566 42.301 57.1371 42.682C57.7081 43.0629 58.5381 43.3296 59.6269 43.4667L61.5761 43.7258C63.3274 43.9772 64.6827 44.4953 65.6497 45.2877C66.6167 46.08 67.0964 47.2 67.0964 48.6324C67.0964 49.4781 66.9289 50.2324 66.5863 50.9029C66.2437 51.5734 65.764 52.1448 65.1396 52.6172C64.5152 53.0896 63.7538 53.4477 62.8629 53.7067C61.9721 53.9581 60.967 54.0877 59.8553 54.0877C59.3223 54.0877 58.7665 54.0496 58.1802 53.9734C57.5939 53.8972 57.0076 53.7753 56.4061 53.5924C55.8122 53.4096 55.2183 53.181 54.6396 52.8915C54.0609 52.6096 53.5127 52.2515 52.9873 51.8324L54.1827 49.7524C54.4949 50.0115 54.8376 50.2553 55.2107 50.4839C55.5838 50.7124 55.9949 50.9181 56.4594 51.101C56.9239 51.2839 57.434 51.421 57.9975 51.52C58.5609 51.6191 59.1853 51.6724 59.8858 51.6724C61.2792 51.6724 62.3756 51.4286 63.198 50.9486C64.0127 50.4686 64.4239 49.76 64.4239 48.8305C64.4239 48.1219 64.1421 47.5581 63.5787 47.1315C63.0152 46.7048 62.1548 46.4153 60.9822 46.2705L59.0178 46.0267C57.1523 45.7753 55.7817 45.2343 54.8985 44.3886C54.0152 43.5429 53.5812 42.4686 53.5812 41.1505C53.5812 40.32 53.7411 39.5734 54.0533 38.9105C54.3655 38.2477 54.8071 37.6839 55.3858 37.2267C55.9568 36.7696 56.6497 36.4191 57.4645 36.1753C58.2716 35.9315 59.1701 35.8096 60.1599 35.8096C61.4543 35.8096 62.6726 35.9848 63.7995 36.3429C64.9264 36.6934 65.8934 37.1581 66.6929 37.7296L65.566 39.8858L65.5508 39.8781Z" fill="#464646"/>
<path d="M84.4492 53.7523H81.8604V51.1314C81.198 52.038 80.3756 52.7619 79.3858 53.2952C78.3959 53.8361 77.2157 54.1028 75.8528 54.1028C74.6954 54.1028 73.6142 53.8742 72.6168 53.4171C71.6117 52.96 70.7437 52.32 70.0127 51.5123C69.2741 50.6971 68.6954 49.7371 68.2766 48.6095C67.8503 47.4895 67.6447 46.2628 67.6447 44.9371C67.6447 43.6114 67.8579 42.4076 68.2766 41.28C68.6954 40.16 69.2817 39.1923 70.0127 38.3771C70.7513 37.5619 71.6193 36.9295 72.6168 36.4723C73.6218 36.0152 74.6954 35.7866 75.8528 35.7866C77.2157 35.7866 78.3959 36.0609 79.3858 36.6019C80.3756 37.1504 81.198 37.8666 81.8604 38.758V36.1371H84.4492V53.7523ZM76.165 38.3923C75.2817 38.3923 74.4822 38.56 73.7589 38.9028C73.0355 39.2457 72.4188 39.7104 71.901 40.3047C71.3833 40.899 70.9873 41.5923 70.7056 42.3847C70.4239 43.1771 70.2792 44.0304 70.2792 44.9295C70.2792 45.8285 70.4239 46.7047 70.7056 47.4971C70.9873 48.2895 71.3909 48.9828 71.9162 49.5771C72.434 50.1714 73.0584 50.6438 73.7817 50.979C74.5051 51.3219 75.3046 51.4895 76.1726 51.4895C77.0406 51.4895 77.8173 51.3219 78.533 50.9866C79.2487 50.6514 79.8655 50.1942 80.3833 49.6076C80.901 49.0285 81.3046 48.3276 81.5939 47.5276C81.8833 46.72 82.0279 45.8514 82.0279 44.9219C82.0279 43.9923 81.8833 43.1238 81.5939 42.3314C81.3046 41.5314 80.901 40.838 80.3833 40.259C79.8655 39.68 79.2487 39.2152 78.533 38.88C77.8173 38.5447 77.0254 38.3771 76.1726 38.3771L76.165 38.3923Z" fill="#464646"/>
<path d="M95.5051 35.7867C96.5254 35.7867 97.4543 35.9543 98.2919 36.2895C99.1294 36.6248 99.8528 37.0971 100.454 37.7143C101.056 38.3314 101.528 39.0705 101.863 39.9391C102.198 40.8076 102.365 41.7752 102.365 42.8419V53.76H99.7766V43.7562C99.7766 42.0724 99.3655 40.7619 98.5431 39.8324C97.7208 38.9029 96.5482 38.4381 95.033 38.4381C94.3401 38.4381 93.6853 38.56 93.0761 38.8114C92.467 39.0629 91.934 39.4133 91.4772 39.8781C91.0203 40.3429 90.6548 40.9067 90.3883 41.5771C90.1218 42.2476 89.9924 42.9943 89.9924 43.8248V53.7524H87.3883V36.1371H89.9619V38.6514C90.297 38.1333 90.6777 37.6914 91.1117 37.3181C91.5381 36.9524 91.9949 36.6552 92.4822 36.4267C92.9695 36.1981 93.4645 36.0305 93.9746 35.9314C94.4848 35.8324 94.9949 35.7791 95.5051 35.7791V35.7867Z" fill="#464646"/>
<path d="M112.614 35.7867C113.84 35.7867 114.982 36.0229 116.025 36.4953C117.076 36.9677 117.967 37.6534 118.706 38.5601L117.038 40.442C116.414 39.7943 115.728 39.2915 114.997 38.9334C114.259 38.5753 113.444 38.3924 112.538 38.3924C111.716 38.3924 110.954 38.5601 110.246 38.8877C109.538 39.2153 108.929 39.6724 108.404 40.2439C107.886 40.8229 107.475 41.5086 107.178 42.3162C106.881 43.1239 106.736 44.0001 106.736 44.9372C106.736 45.8743 106.881 46.7658 107.178 47.5658C107.475 48.3658 107.878 49.0591 108.404 49.6382C108.921 50.2248 109.538 50.6743 110.246 51.002C110.954 51.3296 111.716 51.4972 112.538 51.4972C113.444 51.4972 114.282 51.3067 115.051 50.9182C115.82 50.5296 116.505 50.0343 117.091 49.4324L118.706 51.3296C117.952 52.2362 117.053 52.922 116.01 53.3943C114.967 53.8667 113.832 54.1029 112.607 54.1029C111.381 54.1029 110.185 53.8667 109.142 53.402C108.091 52.9372 107.193 52.2972 106.447 51.4743C105.701 50.6591 105.122 49.6839 104.711 48.5639C104.299 47.4439 104.094 46.2324 104.094 44.9296C104.094 43.6267 104.299 42.4153 104.711 41.3029C105.122 40.1905 105.701 39.2229 106.447 38.4001C107.193 37.5848 108.091 36.9372 109.142 36.4724C110.193 36.0077 111.343 35.7715 112.607 35.7715L112.614 35.7867Z" fill="#464646"/>
<path d="M134.749 46.4076C134.749 47.7105 134.543 48.8457 134.14 49.8133C133.736 50.781 133.188 51.581 132.495 52.221C131.802 52.861 131.01 53.3334 130.104 53.6457C129.198 53.9581 128.254 54.1105 127.272 54.1105C126.289 54.1105 125.322 53.9581 124.424 53.6457C123.518 53.3334 122.726 52.861 122.041 52.221C121.355 51.581 120.815 50.781 120.411 49.8133C120.008 48.8457 119.802 47.7105 119.802 46.4076V36.1448H122.391V46.1486C122.391 47.0629 122.513 47.8629 122.756 48.5257C123 49.1962 123.335 49.7524 123.769 50.1867C124.203 50.6286 124.721 50.9562 125.315 51.1695C125.909 51.3829 126.563 51.4972 127.272 51.4972C127.98 51.4972 128.627 51.3905 129.221 51.1695C129.815 50.9562 130.325 50.621 130.759 50.1867C131.193 49.7448 131.536 49.1886 131.772 48.5257C132.015 47.8553 132.137 47.0629 132.137 46.1486V36.1448H134.741V46.4076H134.749Z" fill="#464646"/>
<path d="M148.454 39.8781C148.188 39.68 147.86 39.482 147.48 39.2915C147.099 39.101 146.673 38.9258 146.201 38.7581C145.728 38.5981 145.234 38.4686 144.701 38.3696C144.168 38.2705 143.627 38.2172 143.071 38.2172C142.477 38.2172 141.944 38.2858 141.472 38.4153C141 38.5448 140.589 38.7277 140.246 38.9639C139.904 39.2 139.645 39.4896 139.454 39.84C139.272 40.1905 139.18 40.5715 139.18 40.9905C139.18 41.7372 139.47 42.301 140.041 42.682C140.612 43.0629 141.442 43.3296 142.53 43.4667L144.48 43.7258C146.231 43.9772 147.586 44.4953 148.553 45.2877C149.52 46.08 150 47.2 150 48.6324C150 49.4781 149.832 50.2324 149.49 50.9029C149.147 51.5734 148.668 52.1448 148.043 52.6172C147.419 53.0896 146.657 53.4477 145.767 53.7067C144.876 53.9581 143.871 54.0877 142.759 54.0877C142.226 54.0877 141.67 54.0496 141.084 53.9734C140.497 53.8972 139.911 53.7753 139.31 53.5924C138.716 53.4096 138.122 53.181 137.543 52.8915C136.964 52.6096 136.416 52.2515 135.891 51.8324L137.086 49.7524C137.398 50.0115 137.741 50.2553 138.114 50.4839C138.487 50.7124 138.898 50.9181 139.363 51.101C139.827 51.2839 140.338 51.421 140.901 51.52C141.464 51.6191 142.089 51.6724 142.789 51.6724C144.183 51.6724 145.279 51.4286 146.102 50.9486C146.916 50.4686 147.327 49.76 147.327 48.8305C147.327 48.1219 147.046 47.5581 146.482 47.1315C145.919 46.7048 145.058 46.4153 143.886 46.2705L141.921 46.0267C140.056 45.7753 138.685 45.2343 137.802 44.3886C136.919 43.5429 136.485 42.4686 136.485 41.1505C136.485 40.32 136.645 39.5734 136.957 38.9105C137.269 38.2477 137.711 37.6839 138.289 37.2267C138.86 36.7696 139.553 36.4191 140.368 36.1753C141.175 35.9315 142.074 35.8096 143.063 35.8096C144.358 35.8096 145.576 35.9848 146.703 36.3429C147.83 36.6934 148.797 37.1581 149.596 37.7296L148.47 39.8858L148.454 39.8781Z" fill="#464646"/>
<path d="M53.9315 12.282H56.1853V14.362H56.2462C57.3426 12.7468 58.8883 11.9468 60.9442 11.9468C62.7487 11.9468 64.3553 12.6096 64.9492 14.362C65.9315 12.823 67.6218 11.9468 69.5102 11.9468C72.4112 11.9468 74.3604 13.1277 74.3604 16.0611V26.4534H71.9695V17.1582C71.9695 15.3982 71.4898 14.0039 69.1523 14.0039C66.8147 14.0039 65.3528 15.4363 65.3528 17.623V26.4534H62.9543V17.1582C62.9543 15.3144 62.3604 14.0039 60.2208 14.0039C57.4035 14.0039 56.3376 16.5258 56.3376 17.623V26.4534H53.9391V12.282" fill="#BDCD31"/>
<path d="M89.7944 26.4001C89.368 26.6515 88.7817 26.781 88.0736 26.781C86.8325 26.781 86.0406 26.1258 86.0406 24.5867C84.7157 26.1258 82.9416 26.781 80.9162 26.781C78.2665 26.781 76.0965 25.661 76.0965 22.8115C76.0965 19.6039 78.5482 18.8877 81.0228 18.4534C83.6421 17.9277 85.9264 18.1486 85.9264 16.3734C85.9264 14.3163 84.1751 14.0115 82.6827 14.0115C80.6574 14.0115 79.165 14.6134 79.0508 16.701H76.6523C76.797 13.1963 79.5533 11.9543 82.8198 11.9543C85.4391 11.9543 88.2868 12.5258 88.2868 15.8477V23.1391C88.2868 24.2286 88.2868 24.7239 89.0482 24.7239C89.2766 24.7239 89.5279 24.6705 89.7792 24.5867V26.3924M85.9036 19.1315C84.0457 20.4801 78.6396 19.162 78.6396 22.6439C78.6396 24.1829 79.9949 24.7239 81.4569 24.7239C84.6091 24.7239 85.9036 22.8343 85.9036 21.5239V19.1315Z" fill="#BDCD31"/>
<path d="M103.424 25.2572C103.424 29.8895 101.277 32.221 96.6624 32.221C93.9289 32.221 90.7766 31.1238 90.632 28.0457H93.0305C93.1142 29.7219 95.2538 30.3543 96.7995 30.3543C99.9289 30.3543 101.17 28.16 101.17 24.9829V24.0533H101.109C100.294 25.7752 98.4289 26.6286 96.5787 26.6286C92.2386 26.6286 90.0685 23.3143 90.0685 19.4514C90.0685 16.0991 91.736 11.9619 96.7995 11.9619C98.6269 11.9619 100.264 12.7543 101.132 14.3238H101.162V12.2972H103.416V25.2648M101.056 19.0857C101.056 16.5867 99.9289 14.0114 96.9137 14.0114C93.8985 14.0114 92.6041 16.4495 92.6041 19.1695C92.6041 21.7143 93.5558 24.5714 96.7081 24.5714C99.8604 24.5714 101.048 21.7448 101.048 19.0933L101.056 19.0857Z" fill="#BDCD31"/>
<path d="M105.898 12.282H108.152V14.5296H108.213C109.226 12.7848 110.832 11.9543 112.949 11.9543C116.779 11.9543 117.959 14.0953 117.959 17.1353V26.4534H115.561V16.8534C115.561 15.101 114.434 14.0039 112.607 14.0039C109.706 14.0039 108.297 15.901 108.297 18.4458V26.4534H105.906V12.282" fill="#BDCD31"/>
<path d="M126.685 11.9543C131.307 11.9543 133.751 15.2153 133.751 19.3829C133.751 23.5505 131.307 26.781 126.685 26.781C122.063 26.781 119.619 23.5277 119.619 19.3829C119.619 15.2382 122.071 11.9543 126.685 11.9543ZM126.685 24.7315C129.198 24.7315 131.216 22.8191 131.216 19.3905C131.216 15.962 129.19 14.0191 126.685 14.0191C124.18 14.0191 122.147 15.9696 122.147 19.3905C122.147 22.8115 124.173 24.7315 126.685 24.7315Z" fill="#BDCD31"/>
<path d="M135.472 12.282H137.726V14.5296H137.787C138.799 12.7848 140.406 11.9543 142.523 11.9543C146.353 11.9543 147.533 14.0953 147.533 17.1353V26.4534H145.142V16.8534C145.142 15.101 144.015 14.0039 142.188 14.0039C139.279 14.0039 137.878 15.901 137.878 18.4458V26.4534H135.48V12.282" fill="#BDCD31"/>
</g>
<defs>
<clipPath id="clip0_635_3501">
<rect width="150" height="64" fill="white"/>
</clipPath>
</defs>
</svg>
