<svg width="100" height="100" viewBox="0 0 100 100" fill="none" xmlns="http://www.w3.org/2000/svg">
<g clip-path="url(#clip0_16_10)">
<path d="M41.6667 68.7499L66.6667 49.9999L41.6667 31.2499V68.7499ZM50 8.33325C26.9792 8.33325 8.33334 26.9791 8.33334 49.9999C8.33334 73.0208 26.9792 91.6666 50 91.6666C73.0208 91.6666 91.6667 73.0208 91.6667 49.9999C91.6667 26.9791 73.0208 8.33325 50 8.33325ZM50 83.3333C31.625 83.3333 16.6667 68.3749 16.6667 49.9999C16.6667 31.6249 31.625 16.6666 50 16.6666C68.375 16.6666 83.3333 31.6249 83.3333 49.9999C83.3333 68.3749 68.375 83.3333 50 83.3333Z" fill="white"/>
</g>
<defs>
<clipPath id="clip0_16_10">
<rect width="100" height="100" fill="white"/>
</clipPath>
</defs>
</svg>
