<svg width="272" height="235" viewBox="0 0 272 235" fill="none" xmlns="http://www.w3.org/2000/svg">
<path opacity="0.45" d="M271.654 0.0839604V41.19C258.758 43.3393 248.28 48.7126 240.22 57.31C232.16 65.9073 225.981 76.654 221.682 89.55C217.921 102.446 216.04 116.417 216.04 131.462H266.012V234.63H163.65V140.328C163.65 108.625 168.755 83.3706 178.964 64.564C189.173 45.22 202.338 30.4433 218.458 20.234C235.115 10.0247 252.847 3.30798 271.654 0.0839604ZM108.842 0.0839604V41.19C95.946 43.3393 85.468 48.7126 77.408 57.31C69.348 65.9073 63.1687 76.654 58.87 89.55C55.1087 102.446 53.228 116.417 53.228 131.462H103.2V234.63H0.838005V140.328C0.838005 108.625 5.94267 83.3706 16.152 64.564C26.3613 45.22 39.526 30.4433 55.646 20.234C72.3033 10.0247 90.0353 3.30798 108.842 0.0839604Z" fill="#BECE00"/>
</svg>
