<svg width="21" height="22" viewBox="0 0 21 22" fill="none" xmlns="http://www.w3.org/2000/svg">
<path fill-rule="evenodd" clip-rule="evenodd" d="M6.13175 1.0071C7.20409 0.958506 7.54632 0.946777 10.2766 0.946777C13.0069 0.946777 13.3491 0.958506 14.4214 1.0071C16.0559 1.08166 17.4906 1.48211 18.6425 2.63404C19.7949 3.78638 20.1949 5.22148 20.2695 6.85512C20.3181 7.92746 20.3298 8.26969 20.3298 11C20.3298 13.7302 20.3181 14.0725 20.2695 15.1448C20.1949 16.7793 19.7945 18.214 18.6425 19.3659C17.4902 20.5182 16.0547 20.9183 14.4214 20.9928C13.3491 21.0414 13.0069 21.0532 10.2766 21.0532C7.54632 21.0532 7.20409 21.0414 6.13175 20.9928C4.49727 20.9183 3.06259 20.5178 1.91066 19.3659C0.758317 18.2136 0.358284 16.7785 0.283723 15.1448C0.235133 14.0725 0.223404 13.7302 0.223404 11C0.223404 8.26969 0.235133 7.92746 0.283723 6.85512C0.358284 5.22064 0.758736 3.78597 1.91066 2.63404C3.06301 1.48169 4.4981 1.08166 6.13175 1.0071ZM14.3389 2.81679C13.2787 2.7682 12.9608 2.75815 10.2766 2.75815C7.5924 2.75815 7.27447 2.76862 6.21428 2.81679C5.07031 2.86915 4.00844 3.09828 3.19162 3.9151C2.37479 4.73193 2.14566 5.7938 2.0933 6.93776C2.04471 7.99796 2.03466 8.31589 2.03466 11.0001C2.03466 13.6843 2.04513 14.0022 2.0933 15.0624C2.14566 16.2064 2.37479 17.2683 3.19162 18.0851C4.00844 18.9019 5.07031 19.131 6.21428 19.1834C7.27405 19.232 7.59198 19.242 10.2766 19.242C12.9612 19.242 13.2792 19.2316 14.3389 19.1834C15.4829 19.131 16.5448 18.9019 17.3616 18.0851C18.1784 17.2683 18.4075 16.2064 18.4599 15.0624C18.5085 14.0022 18.5185 13.6843 18.5185 11.0001C18.5185 8.31589 18.5081 7.99796 18.4599 6.93776C18.4075 5.7938 18.1784 4.73193 17.3616 3.9151C16.5448 3.09828 15.4829 2.86915 14.3389 2.81679Z" fill="white"/>
<path fill-rule="evenodd" clip-rule="evenodd" d="M5.70695 11.457C5.70695 8.68105 7.95718 6.43042 10.7336 6.43042C13.5099 6.43042 15.7601 8.68064 15.7601 11.457C15.7601 14.2334 13.5099 16.4836 10.7336 16.4836C7.95718 16.4836 5.70695 14.233 5.70695 11.457ZM7.47059 11.457C7.47059 13.259 8.93159 14.72 10.7336 14.72C12.5355 14.72 13.9965 13.259 13.9965 11.457C13.9965 9.65508 12.5355 8.19408 10.7336 8.19408C8.93159 8.19408 7.47059 9.65508 7.47059 11.457Z" fill="white"/>
<circle cx="15.3032" cy="5.97343" r="1.37089" fill="white"/>
</svg>
