<svg width="19" height="17" viewBox="0 0 19 17" fill="none" xmlns="http://www.w3.org/2000/svg">
<path fill-rule="evenodd" clip-rule="evenodd" d="M18.9894 2.12418C18.2773 2.46965 17.5256 2.68557 16.7344 2.81512C17.5256 2.29692 18.1586 1.47642 18.4355 0.483195C17.6838 0.958217 16.8531 1.30369 15.9432 1.51961C15.231 0.699114 14.2025 0.180908 13.0947 0.180908C10.9584 0.180908 9.21775 2.081 9.21775 4.41292C9.21775 4.75839 9.25731 5.06068 9.33644 5.36297C6.13198 5.19023 3.24402 3.50606 1.30552 0.915033C0.989029 1.56279 0.791223 2.25373 0.791223 3.03104C0.791223 4.49929 1.46376 5.7948 2.53191 6.57211C1.89894 6.52893 1.30552 6.35619 0.751662 6.05391V6.09709C0.751662 8.16991 2.09674 9.89727 3.87699 10.2859C3.56051 10.3723 3.20445 10.4155 2.8484 10.4155C2.61104 10.4155 2.33411 10.3723 2.09674 10.3291C2.61104 12.0133 4.03524 13.2656 5.73637 13.2656C4.39129 14.3884 2.72972 15.0793 0.909907 15.0793C0.593418 15.0793 0.276928 15.0793 0 15.0361C1.74069 16.2453 3.75831 16.9362 5.97374 16.9362C13.1343 16.9362 17.0509 10.4587 17.0509 4.84476C17.0509 4.67202 17.0509 4.45611 17.0509 4.28337C17.8025 3.72198 18.4751 2.98786 18.9894 2.12418Z" fill="white"/>
</svg>
