<svg width="21" height="22" viewBox="0 0 21 22" fill="none" xmlns="http://www.w3.org/2000/svg">
<path fill-rule="evenodd" clip-rule="evenodd" d="M1.73138 0.946777H20.1622C20.623 0.946777 21 1.32377 21 1.78454V20.2154C21 20.6762 20.623 21.0532 20.1622 21.0532H1.73138C1.27061 21.0532 0.893616 20.6762 0.893616 20.2154V1.78454C0.893616 1.32377 1.27061 0.946777 1.73138 0.946777ZM3.86769 18.0791H6.84176V8.4867H3.86769V18.0791ZM5.37567 7.18811C4.41224 7.18811 3.65825 6.43412 3.65825 5.47069C3.65825 4.50726 4.41224 3.75327 5.37567 3.75327C6.3391 3.75327 7.09309 4.50726 7.09309 5.47069C7.09309 6.39223 6.3391 7.18811 5.37567 7.18811ZM15.0519 18.079H17.9841V12.8011C17.9841 10.204 17.4395 8.23526 14.4236 8.23526C12.9993 8.23526 11.994 9.03114 11.617 9.78513H11.5751V8.48659H8.72674V18.079H11.7008V13.3456C11.7008 12.089 11.9521 10.8742 13.502 10.8742C15.0519 10.8742 15.0519 12.2984 15.0519 13.4294V18.079Z" fill="white"/>
</svg>
