<svg width="21" height="22" viewBox="0 0 21 22" fill="none" xmlns="http://www.w3.org/2000/svg">
<path d="M19.8218 0.946777H1.39096C0.928273 0.946777 0.553192 1.32186 0.553192 1.78454V20.2154C0.553192 20.6781 0.928273 21.0532 1.39096 21.0532H11.2926V13.2669H8.6724V10.2325H11.2926V7.99464C11.2926 5.39766 12.8788 3.98356 15.1955 3.98356C16.3052 3.98356 17.2589 4.06618 17.5369 4.10311V6.8171L15.9301 6.81783C14.6702 6.81783 14.4262 7.41654 14.4262 8.2951V10.2325H17.4311L17.0398 13.2669H14.4262V21.0532H19.8218C20.2845 21.0532 20.6596 20.6781 20.6596 20.2154V1.78454C20.6596 1.32186 20.2845 0.946777 19.8218 0.946777Z" fill="white"/>
</svg>
